<?xml version="1.0" standalone="no"?><!DOCTYPE svg PUBLIC "-//W3C//DTD SVG 1.1//EN" "http://www.w3.org/Graphics/SVG/1.1/DTD/svg11.dtd"><svg t="1686299428159" class="icon" viewBox="0 0 1024 1024" version="1.1" xmlns="http://www.w3.org/2000/svg" p-id="61289" xmlns:xlink="http://www.w3.org/1999/xlink" width="200" height="200"><path d="M337.768848 686.342965a400.953752 400.953752 0 1 1 133.01764 88.312491 399.479844 399.479844 0 0 1-133.01764-88.312491zM861.880305 162.221344a339.161437 339.161437 0 1 0-479.6401 479.650265A339.161437 339.161437 0 1 0 861.880305 162.221344z" fill="#1296db" p-id="61290"></path><path d="M-3.316177 666.83206m7.187656-7.187657l34.75232-34.75232q7.187657-7.187657 14.375314 0l347.012875 347.012876q7.187657 7.187657 0 14.375313l-34.752319 34.75232q-7.187657 7.187657-14.375314 0l-347.012876-347.012875q-7.187657-7.187657 0-14.375314Z" fill="#1296db" p-id="61291"></path><path d="M-4.22923 978.188043m7.187656-7.187656l347.012876-347.012876q7.187657-7.187657 14.375314 0l34.752319 34.75232q7.187657 7.187657 0 14.375313l-347.012875 347.012876q-7.187657 7.187657-14.375314 0l-34.75232-34.75232q-7.187657-7.187657 0-14.375313Z" fill="#1296db" p-id="61292"></path></svg>