<?xml version="1.0" standalone="no"?><!DOCTYPE svg PUBLIC "-//W3C//DTD SVG 1.1//EN" "http://www.w3.org/Graphics/SVG/1.1/DTD/svg11.dtd"><svg t="1655196226562" class="icon" viewBox="0 0 1024 1024" version="1.1" xmlns="http://www.w3.org/2000/svg" p-id="5822" width="48" height="48" xmlns:xlink="http://www.w3.org/1999/xlink"><defs><style type="text/css">@font-face { font-family: feedback-iconfont; src: url("//at.alicdn.com/t/font_1031158_u69w8yhxdu.woff2?t=1630033759944") format("woff2"), url("//at.alicdn.com/t/font_1031158_u69w8yhxdu.woff?t=1630033759944") format("woff"), url("//at.alicdn.com/t/font_1031158_u69w8yhxdu.ttf?t=1630033759944") format("truetype"); }
</style></defs><path d="M673.8 257.2S795.2 143 875.2 150 827 476.9 815.6 476c-11.4-1-141.8-218.8-141.8-218.8z" fill="#FFCC9A" p-id="5823"></path><path d="M815.7 492c-0.5 0-1 0-1.5-0.1-8.4-0.7-13.9-7-20.7-15.9-4.6-6-10.7-14.7-18.2-25.7-12.3-18.3-28.6-43.8-48.5-75.6-33.7-54.1-66.4-108.7-66.8-109.3l-6.6-11 9.4-8.8c1.3-1.2 31.7-29.7 72.6-57.8 56.7-38.9 104.1-57 141.1-53.7 17.1 1.5 29.9 12.4 36.1 30.6 4.5 13.2 5.7 30.5 3.8 52.8-4.9 57.1-29.3 131.1-43.4 170.1-9.2 25.4-18.9 49.6-27.4 68.2-4.1 8.9-7.6 16.1-10.6 21.2-3 5.2-8.6 15-19.3 15zM694.3 260.2c46.2 76.9 96.4 157.2 119.1 189 10.9-22.9 29.1-67.8 44.9-118 24.1-76.8 32.8-136 23.2-158.5-2.5-5.9-5.1-6.6-7.7-6.8-54.6-4.7-140.6 60-179.5 94.3z" fill="#2D2D2D" p-id="5824"></path><path d="M755.3 250.2s53.8-50.6 89.2-47.5c35.5 3.1-21.4 144.9-26.4 144.5s-62.8-97-62.8-97z" fill="#FFAD69" p-id="5825"></path><path d="M350.2 257.2S228.8 143 148.8 150s48.2 326.9 59.6 326c11.4-1 141.8-218.8 141.8-218.8z" fill="#FFCC9A" p-id="5826"></path><path d="M208.3 492c-10.7 0-16.3-9.7-19.3-15.1-3-5.1-6.5-12.2-10.6-21.2-8.5-18.6-18.2-42.8-27.4-68.2-14.1-39-38.5-113-43.4-170.1-1.9-22.3-0.7-39.6 3.8-52.8 6.2-18.2 19-29.1 36.1-30.6 37-3.2 84.5 14.8 141.1 53.7 40.9 28 71.3 56.6 72.6 57.8l9.4 8.8-6.6 11c-0.3 0.5-33.1 55.2-66.7 109.3-19.8 31.8-36.2 57.3-48.5 75.6-7.4 11.1-13.6 19.7-18.2 25.7-6.8 8.8-12.3 15.1-20.7 15.9-0.6 0.2-1.1 0.2-1.6 0.2z m-52.2-326.3c-2 0-4 0.1-5.9 0.3-2.6 0.2-5.2 0.9-7.7 6.8-9.5 22.5-0.9 81.7 23.2 158.5 15.7 50.2 34 95.2 44.9 118 22.7-31.9 72.9-112.1 119.1-189-37.6-33.2-118.8-94.6-173.6-94.6z" fill="#2D2D2D" p-id="5827"></path><path d="M268.7 250.2s-53.8-50.6-89.2-47.5c-35.5 3.1 21.4 144.9 26.4 144.5 5-0.5 62.8-97 62.8-97z" fill="#FFAD69" p-id="5828"></path><path d="M568 803.5H456c-132.8 0-241.5-108.7-241.5-241.5v-59.5c0-155.1 126.9-282 282-282h31.6c154.8 0 281.4 126.7 281.4 281.4v60c0 132.9-108.7 241.6-241.5 241.6z" fill="#FFCC9A" p-id="5829"></path><path d="M568 819.5H456c-68.5 0-133.1-26.9-181.9-75.6S198.5 630.5 198.5 562v-59.5c0-40.1 7.9-79 23.5-115.7 15.1-35.4 36.6-67.3 64-94.7s59.3-48.9 94.7-64c36.7-15.6 75.7-23.5 115.7-23.5H528c40 0 78.9 7.9 115.5 23.5 35.4 15 67.2 36.5 94.5 63.9 27.4 27.4 48.8 59.2 63.9 94.5 15.6 36.7 23.5 75.5 23.5 115.5v60c0 68.5-26.9 133.1-75.6 181.9S636.5 819.5 568 819.5z m-71.5-583c-146.7 0-266 119.3-266 266V562c0 124.4 101.2 225.5 225.5 225.5h112c124.4 0 225.5-101.2 225.5-225.5v-60c0-146.4-119.1-265.4-265.4-265.4h-31.6z" fill="#2D2D2D" p-id="5830"></path><path d="M308.1 383.4c-3.2 0-6.5-1-9.3-3-7.2-5.2-8.8-15.2-3.6-22.3 28.4-39.4 67.1-69.7 112-87.5 8.2-3.3 17.5 0.8 20.8 9 3.3 8.2-0.8 17.5-9 20.8-39.2 15.5-73 42-97.8 76.4-3.2 4.2-8.1 6.6-13.1 6.6zM512.8 803.5c79.9 1.1 142.5-46.5 151.7-121.5 8.8-71.2-9.2-99.7-88.5-161-47.8-37-39.2-296.8-40.2-297.1h-47.7c-1.1 0.4 7.6 260.1-40.2 297.1-79.3 61.3-97.2 89.8-88.5 161 9.2 75 71.8 122.6 151.7 121.5" fill="#FFFFFF" p-id="5831"></path><path d="M476.3 610.3l7.1 71.5c4.8 18.1 12.6 28 28 28s24.5-11.7 28-28l8.3-72.4-38.3-12.4-33.1 13.3z" fill="#FF6666" p-id="5832"></path><path d="M568 819.5H456c-68.5 0-133.1-26.9-181.9-75.6S198.5 630.5 198.5 562v-59.5c0-40.1 7.9-79 23.5-115.7 15.1-35.4 36.6-67.3 64-94.7s59.3-48.9 94.7-64c36.7-15.6 75.7-23.5 115.7-23.5H528c40 0 78.9 7.9 115.5 23.5 35.4 15 67.2 36.5 94.5 63.9 27.4 27.4 48.8 59.2 63.9 94.5 15.6 36.7 23.5 75.5 23.5 115.5v60c0 68.5-26.9 133.1-75.6 181.9S636.5 819.5 568 819.5z m-71.5-583c-146.7 0-266 119.3-266 266V562c0 124.4 101.2 225.5 225.5 225.5h112c124.4 0 225.5-101.2 225.5-225.5v-60c0-146.4-119.1-265.4-265.4-265.4h-31.6z" fill="#2D2D2D" p-id="5833"></path><path d="M385.4 470.9h-33.8c-10.1 0-18.3-8.2-18.3-18.3 0-10.1 8.2-18.3 18.3-18.3h33.8c10.1 0 18.3 8.2 18.3 18.3 0 10.1-8.2 18.3-18.3 18.3zM672.4 470.9h-33.8c-10.1 0-18.3-8.2-18.3-18.3 0-10.1 8.2-18.3 18.3-18.3h33.8c10.1 0 18.3 8.2 18.3 18.3 0 10.1-8.2 18.3-18.3 18.3z" fill="#2D2D2D" p-id="5834"></path><path d="M469.3 556.9a42.7 27.3 0 1 0 85.4 0 42.7 27.3 0 1 0-85.4 0Z" fill="#2D2D2D" p-id="5835"></path><path d="M481.2 618.3c-5.9 0-11.8-1.4-17.2-4.1-9.3-4.6-16.2-12.6-19.5-22.4-1.4-4.2 0.9-8.7 5-10.1 4.2-1.4 8.7 0.9 10.1 5 1.9 5.8 6 10.4 11.5 13.2s11.6 3.1 17.4 1.2c11.9-4 18.4-16.9 14.4-28.9-1.4-4.2 0.9-8.7 5-10.1 4.2-1.4 8.7 0.9 10.1 5 6.8 20.3-4.2 42.3-24.4 49.1-4.1 1.4-8.3 2.1-12.4 2.1z" fill="#2D2D2D" p-id="5836"></path><path d="M542.8 618.3c-4.2 0-8.3-0.7-12.4-2-20.3-6.8-31.2-28.8-24.4-49.1 1.4-4.2 5.9-6.4 10.1-5 4.2 1.4 6.4 5.9 5 10.1-4 11.9 2.4 24.9 14.4 28.9 5.8 1.9 12 1.5 17.4-1.2 5.5-2.7 9.5-7.4 11.5-13.2 1.4-4.2 5.9-6.4 10.1-5 4.2 1.4 6.4 5.9 5 10.1-3.3 9.8-10.2 17.8-19.5 22.4-5.4 2.6-11.2 4-17.2 4z" fill="#2D2D2D" p-id="5837"></path><path d="M691.8 532.3a37.7 24.1 0 1 0 75.4 0 37.7 24.1 0 1 0-75.4 0Z" fill="#FF9292" p-id="5838"></path><path d="M256.8 532.3a37.7 24.1 0 1 0 75.4 0 37.7 24.1 0 1 0-75.4 0Z" fill="#FF9292" p-id="5839"></path><path d="M650.1 771c33 20.9 50.2 127.9-6 130.5-31.5 1.4-116.1-33.3-119.2-37l15.9-55.5s82.8-54.8 109.3-38z" fill="#FF7171" p-id="5840"></path><path d="M642.2 917.5c-15.8 0-40.6-5.9-73.7-17.5-11.9-4.2-24.1-8.9-34.4-13.2-16.9-7.1-19.1-9.2-21.5-11.9l-5.5-6.5L527 799l4.9-3.3c0.9-0.6 21.9-14.4 46.6-26.4 38.2-18.5 63.7-22.2 80.1-11.8 13.8 8.7 25.6 27.6 32.4 51.6 6.5 23.1 7.4 47.2 2.4 66-6.9 25.8-24.6 41.2-48.7 42.3-0.7 0.1-1.6 0.1-2.5 0.1z m-98.3-61.3c23.6 10.2 78.7 30.2 99.5 29.3 6.7-0.3 14.9-2.7 19.2-18.6 3.5-13.2 2.7-31.6-2.3-49.1-5.4-19.3-13.5-30-18.7-33.3-0.1-0.1-10.2-5.2-49.1 13.6-16.1 7.8-30.7 16.6-38 21.1l-10.6 37z" fill="#2D2D2D" p-id="5841"></path><path d="M378.7 771c-33 20.9-50.2 127.9 6 130.5 31.5 1.4 116.1-33.3 119.2-37L488.1 809s-82.8-54.8-109.4-38z" fill="#FF7171" p-id="5842"></path><path d="M386.6 917.5c-0.9 0-1.8 0-2.6-0.1-24.1-1.1-41.8-16.5-48.7-42.3-5-18.8-4.1-42.9 2.4-66 6.8-24.1 18.6-42.9 32.4-51.6 16.4-10.4 41.9-6.6 80.1 11.8 24.7 11.9 45.7 25.8 46.6 26.4l4.9 3.3 19.9 69.4-5.5 6.5c-2.3 2.7-4.6 4.7-21.5 11.9-10.3 4.3-22.5 9-34.4 13.2-32.9 11.6-57.7 17.5-73.6 17.5z m5.5-133.7c-3.4 0-4.7 0.7-4.8 0.7-5.2 3.3-13.3 14-18.7 33.3-4.9 17.5-5.8 35.9-2.3 49.1 4.2 15.9 12.5 18.3 19.2 18.6h1.5c21.8 0 75-19.3 98-29.3l-10.6-37c-7.3-4.6-22.1-13.5-38.2-21.3-24.9-11.9-38-14.1-44.1-14.1z" fill="#2D2D2D" p-id="5843"></path><path d="M284 408.6m-16 0a16 16 0 1 0 32 0 16 16 0 1 0-32 0Z" fill="#FFFFFF" p-id="5844"></path><path d="M620.3 850.7c-1.2 0-2.3-0.1-3.5-0.4-13.1-3-33.4-4.5-39.9-3-5.7 4.5-14 4.7-19.9-0.1-6.9-5.5-8-15.6-2.5-22.5 6.2-7.8 17.2-10.7 36.8-9.8 12 0.5 25 2.5 32.5 4.2 8.6 1.9 14 10.5 12.1 19.1-1.7 7.4-8.3 12.5-15.6 12.5z" fill="#FF8D8D" p-id="5845"></path><path d="M410 852.6c-7.3 0-13.9-5-15.6-12.5-1.9-8.6 3.5-17.2 12.1-19.1 7.5-1.7 20.5-3.6 32.5-4.2 19.6-0.9 30.6 2 36.8 9.8 5.5 6.9 4.4 17-2.5 22.5-5.9 4.7-14.2 4.6-19.9 0.1-6.5-1.4-26.7 0.1-39.9 3-1.2 0.3-2.4 0.4-3.5 0.4z" fill="#FF8D8D" p-id="5846"></path><path d="M562.2 826.9c0 1.6-0.1 3.2-0.2 4.8-2.4 25.5-23.9 45.5-50.1 45.5-27.8 0-50.3-22.5-50.3-50.3s22.5-50.3 50.3-50.3 50.3 22.5 50.3 50.3z" fill="#FF7171" p-id="5847"></path><path d="M511.9 893.2c-36.6 0-66.3-29.8-66.3-66.3s29.8-66.3 66.3-66.3c36.6 0 66.3 29.8 66.3 66.3 0 2.1-0.1 4.3-0.3 6.3-1.6 16.4-9.1 31.5-21.3 42.6a65.992 65.992 0 0 1-44.7 17.4z m0-100.6c-18.9 0-34.3 15.4-34.3 34.3s15.4 34.3 34.3 34.3c17.8 0 32.5-13.3 34.2-31 0.1-1.1 0.2-2.2 0.2-3.3-0.1-19-15.5-34.3-34.4-34.3z" fill="#2D2D2D" p-id="5848"></path><path d="M500 812.1m-8.2 0a8.2 8.2 0 1 0 16.4 0 8.2 8.2 0 1 0-16.4 0Z" fill="#FFFFFF" p-id="5849"></path></svg>