<?xml version="1.0" standalone="no"?><!DOCTYPE svg PUBLIC "-//W3C//DTD SVG 1.1//EN" "http://www.w3.org/Graphics/SVG/1.1/DTD/svg11.dtd"><svg t="1686299783648" class="icon" viewBox="0 0 1024 1024" version="1.1" xmlns="http://www.w3.org/2000/svg" p-id="71158" xmlns:xlink="http://www.w3.org/1999/xlink" width="200" height="200"><path d="M853.333333 384c-108.088889-34.133333-62.577778-102.4-128-128C617.244444 210.488889 512 213.333333 512 213.333333s-105.244444 0-213.333333 42.666667c-65.422222 25.6-22.755556 93.866667-128 128-113.777778 36.977778-170.666667-17.066667-170.666667-85.333333C0 253.155556 28.444444 204.8 85.333333 170.666667c145.066667-85.333333 426.666667-85.333333 426.666667-85.333334s281.6 0 426.666667 85.333334c56.888889 34.133333 85.333333 82.488889 85.333333 128 2.844444 68.266667-56.888889 122.311111-170.666667 85.333333z m-486.4-31.288889h73.955556V426.666667h145.066667v-73.955556h73.955555V426.666667l292.977778 256v170.666666c0 48.355556-51.2 85.333333-99.555556 85.333334H170.666667c-48.355556 0-96.711111-36.977778-96.711111-85.333334v-170.666666l292.977777-256v-73.955556zM512 830.577778c79.644444 0 145.066667-65.422222 145.066667-145.066667S591.644444 540.444444 512 540.444444s-145.066667 65.422222-145.066667 145.066667 65.422222 145.066667 145.066667 145.066667z m0 0" fill="#1296db" p-id="71159"></path></svg>