<?xml version="1.0" standalone="no"?><!DOCTYPE svg PUBLIC "-//W3C//DTD SVG 1.1//EN" "http://www.w3.org/Graphics/SVG/1.1/DTD/svg11.dtd"><svg t="1686300778223" class="icon" viewBox="0 0 1024 1024" version="1.1" xmlns="http://www.w3.org/2000/svg" p-id="75351" xmlns:xlink="http://www.w3.org/1999/xlink" width="200" height="200"><path d="M567.096889 730.197333l191.175111-190.833777a46.961778 46.961778 0 0 1 66.076444 0l110.136889 110.136888-101.660444 101.575112-75.747556-75.747556a22.584889 22.584889 0 0 1-4.693333-4.522667 23.495111 23.495111 0 0 1 36.750222-29.269333l43.434667 42.666667 35.811555-34.645334-58.680888-58.709333c-11.377778-12.657778-19.911111-17.607111-37.575112 0l-129.763555 129.763556 76.544 77.255111 32.881778-32.967111 0.597333 1.507555a2.190222 2.190222 0 0 1 0.512-0.426667 46.307556 46.307556 0 0 1 65.621333 0.426667l29.354667 29.354667-32.881778 33.792-12.344889-12.316445c-14.222222-15.018667-22.044444-15.616-37.575111 0l-55.182222 55.182223-187.022222 37.831111z m23.552 112.810667l95.402667-12.316444-77.511112-75.832889zM113.777778 910.222222a411.050667 411.050667 0 0 1 285.952-390.200889l0.881778-0.426666a234.638222 234.638222 0 1 1 246.300444 0.398222 418.531556 418.531556 0 0 1 39.338667 14.677333 27.192889 27.192889 0 0 1 17.351111 38.428445 27.676444 27.676444 0 0 1-36.977778 12.401777l-0.256-0.597333a348.188444 348.188444 0 0 0-143.587556-29.354667A354.588444 354.588444 0 0 0 168.391111 910.193778z m226.816-590.165333a183.722667 183.722667 0 0 0 179.2 183.381333h8.760889a183.495111 183.495111 0 1 0-187.904-183.381333z" p-id="75352" fill="#1296db"></path></svg>